<?xml version="1.0" encoding="utf-8"?>
<!-- Generator: Adobe Illustrator 19.0.0, SVG Export Plug-In . SVG Version: 6.00 Build 0)  -->
<svg version="1.1" id="Layer_1" xmlns="http://www.w3.org/2000/svg" xmlns:xlink="http://www.w3.org/1999/xlink" x="0px" y="0px"
	 viewBox="0 0 180 180" style="enable-background:new 0 0 180 180;" xml:space="preserve">
<style type="text/css">
	.st0{clip-path:url(#XMLID_100_);}
	.st1{clip-path:url(#XMLID_101_);fill:#D0D0D0;}
	.st2{clip-path:url(#XMLID_102_);}
	.st3{clip-path:url(#XMLID_103_);fill:#EDEDED;}
	.st4{clip-path:url(#XMLID_104_);}
	.st5{clip-path:url(#XMLID_105_);fill:#E0E1E4;}
	.st6{clip-path:url(#XMLID_106_);}
	.st7{clip-path:url(#XMLID_107_);fill:none;stroke:#A8A8A8;stroke-width:16;stroke-linejoin:bevel;stroke-miterlimit:10;}
	.st8{clip-path:url(#XMLID_108_);}
	.st9{clip-path:url(#XMLID_109_);}
	.st10{clip-path:url(#XMLID_110_);fill-rule:evenodd;clip-rule:evenodd;fill:#FFD9D9;}
	.st11{clip-path:url(#XMLID_111_);}
	.st12{clip-path:url(#XMLID_112_);fill:none;stroke:#A8A8A8;stroke-width:16;stroke-linejoin:bevel;stroke-miterlimit:10;}
	.st13{clip-path:url(#XMLID_113_);}
	.st14{clip-path:url(#XMLID_114_);}
	.st15{clip-path:url(#XMLID_115_);fill-rule:evenodd;clip-rule:evenodd;fill:#FFD9D9;}
	.st16{clip-path:url(#XMLID_116_);}
	.st17{clip-path:url(#XMLID_117_);fill:none;stroke:#A8A8A8;stroke-width:16;stroke-linejoin:bevel;stroke-miterlimit:10;}
	.st18{clip-path:url(#XMLID_118_);}
	.st19{clip-path:url(#XMLID_119_);fill:#CBCBCB;}
	.st20{clip-path:url(#XMLID_120_);}
	.st21{clip-path:url(#XMLID_121_);fill:#CBCBCB;}
	.st22{clip-path:url(#XMLID_122_);}
	.st23{clip-path:url(#XMLID_123_);fill:#A8A8A8;}
	.st24{clip-path:url(#XMLID_124_);}
	.st25{clip-path:url(#XMLID_125_);fill:#A8A8A8;}
	.st26{clip-path:url(#XMLID_126_);}
	.st27{clip-path:url(#XMLID_127_);fill:#A8A8A8;}
	.st28{clip-path:url(#XMLID_128_);}
	.st29{clip-path:url(#XMLID_129_);fill:#A8A8A8;}
	.st30{clip-path:url(#XMLID_130_);}
	.st31{clip-path:url(#XMLID_131_);fill:#A8A8A8;}
</style>
<g id="XMLID_82_">
	<defs>
		<path id="XMLID_83_" d="M0,6c0-3.3,2.7-6,6-6h168c3.3,0,6,2.7,6,6v168c0,3.3-2.7,6-6,6H6c-3.3,0-6-2.7-6-6V6z"/>
	</defs>
	<clipPath id="XMLID_100_">
		<use xlink:href="#XMLID_83_"  style="overflow:visible;"/>
	</clipPath>
	<g id="XMLID_84_" class="st0">
		<defs>
			<rect id="XMLID_85_" x="-310" y="-210" width="800" height="600"/>
		</defs>
		<clipPath id="XMLID_101_">
			<use xlink:href="#XMLID_85_"  style="overflow:visible;"/>
		</clipPath>
		<rect id="XMLID_86_" x="-5" y="-5" class="st1" width="190" height="190"/>
	</g>
</g>
<g id="XMLID_77_">
	<defs>
		<path id="XMLID_78_" d="M0,6c0-3.3,2.7-6,6-6h147.8c3.3,0,6,2.7,6,6v168c0,3.3-2.7,6-6,6H6c-3.3,0-6-2.7-6-6V6z"/>
	</defs>
	<clipPath id="XMLID_102_">
		<use xlink:href="#XMLID_78_"  style="overflow:visible;"/>
	</clipPath>
	<g id="XMLID_79_" class="st2">
		<defs>
			<rect id="XMLID_80_" x="-310" y="-210" width="800" height="600"/>
		</defs>
		<clipPath id="XMLID_103_">
			<use xlink:href="#XMLID_80_"  style="overflow:visible;"/>
		</clipPath>
		<rect id="XMLID_81_" x="-5" y="-5" class="st3" width="169.8" height="190"/>
	</g>
</g>
<g id="XMLID_72_">
	<defs>
		<path id="XMLID_73_" d="M18.2,6c0-3.3,2.7-6,6-6h129.6c3.3,0,6,2.7,6,6v168c0,3.3-2.7,6-6,6H24.2c-3.3,0-6-2.7-6-6V6z"/>
	</defs>
	<clipPath id="XMLID_104_">
		<use xlink:href="#XMLID_73_"  style="overflow:visible;"/>
	</clipPath>
	<g id="XMLID_74_" class="st4">
		<defs>
			<rect id="XMLID_75_" x="-310" y="-210" width="800" height="600"/>
		</defs>
		<clipPath id="XMLID_105_">
			<use xlink:href="#XMLID_75_"  style="overflow:visible;"/>
		</clipPath>
		<rect id="XMLID_76_" x="13.2" y="-5" class="st5" width="151.6" height="190"/>
	</g>
</g>
<g id="XMLID_67_">
	<defs>
		<path id="XMLID_68_" d="M0,6c0-3.3,2.7-6,6-6h168c3.3,0,6,2.7,6,6v168c0,3.3-2.7,6-6,6H6c-3.3,0-6-2.7-6-6V6z"/>
	</defs>
	<clipPath id="XMLID_106_">
		<use xlink:href="#XMLID_68_"  style="overflow:visible;"/>
	</clipPath>
	<g id="XMLID_69_" class="st6">
		<defs>
			<rect id="XMLID_70_" x="-310" y="-210" width="800" height="600"/>
		</defs>
		<clipPath id="XMLID_107_">
			<use xlink:href="#XMLID_70_"  style="overflow:visible;"/>
		</clipPath>
		<path id="XMLID_71_" class="st7" d="M0,6c0-3.3,2.7-6,6-6h168c3.3,0,6,2.7,6,6v168c0,3.3-2.7,6-6,6H6c-3.3,0-6-2.7-6-6V6z"/>
	</g>
</g>
<g id="XMLID_57_">
	<defs>
		<path id="XMLID_58_" d="M32,55v18c0,5.5,4.5,10,10,10h18c5.5,0,10-4.5,10-10V55c0-5.5-4.5-10-10-10H42C36.5,45,32,49.5,32,55z
			 M40,55c0-1.1,0.9-2,2-2h18c1.1,0,2,0.9,2,2v18c0,1.1-0.9,2-2,2H42c-1.1,0-2-0.9-2-2V55z M12,25h78v78H12V25z"/>
	</defs>
	<clipPath id="XMLID_108_">
		<use xlink:href="#XMLID_58_"  style="overflow:visible;"/>
	</clipPath>
	<g id="XMLID_62_" class="st8">
		<defs>
			<path id="XMLID_63_" d="M36,55c0-3.3,2.7-6,6-6h18c3.3,0,6,2.7,6,6v18c0,3.3-2.7,6-6,6H42c-3.3,0-6-2.7-6-6V55z"/>
		</defs>
		<clipPath id="XMLID_109_">
			<use xlink:href="#XMLID_63_"  style="overflow:visible;"/>
		</clipPath>
		<g id="XMLID_64_" class="st9">
			<defs>
				<rect id="XMLID_65_" x="-310" y="-210" width="800" height="600"/>
			</defs>
			<clipPath id="XMLID_110_">
				<use xlink:href="#XMLID_65_"  style="overflow:visible;"/>
			</clipPath>
			<path id="XMLID_66_" class="st10" d="M36,55c0-3.3,2.7-6,6-6h18c3.3,0,6,2.7,6,6v18c0,3.3-2.7,6-6,6H42c-3.3,0-6-2.7-6-6V55z"/>
		</g>
	</g>
</g>
<g id="XMLID_52_">
	<defs>
		<path id="XMLID_53_" d="M36,55c0-3.3,2.7-6,6-6h18c3.3,0,6,2.7,6,6v18c0,3.3-2.7,6-6,6H42c-3.3,0-6-2.7-6-6V55z"/>
	</defs>
	<clipPath id="XMLID_111_">
		<use xlink:href="#XMLID_53_"  style="overflow:visible;"/>
	</clipPath>
	<g id="XMLID_54_" class="st11">
		<defs>
			<rect id="XMLID_55_" x="-310" y="-210" width="800" height="600"/>
		</defs>
		<clipPath id="XMLID_112_">
			<use xlink:href="#XMLID_55_"  style="overflow:visible;"/>
		</clipPath>
		<path id="XMLID_56_" class="st12" d="M36,55c0-3.3,2.7-6,6-6h18c3.3,0,6,2.7,6,6v18c0,3.3-2.7,6-6,6H42c-3.3,0-6-2.7-6-6V55z"/>
	</g>
</g>
<g id="XMLID_42_">
	<defs>
		<path id="XMLID_43_" d="M110,55v18c0,5.5,4.5,10,10,10h18c5.5,0,10-4.5,10-10V55c0-5.5-4.5-10-10-10h-18C114.5,45,110,49.5,110,55
			z M118,55c0-1.1,0.9-2,2-2h18c1.1,0,2,0.9,2,2v18c0,1.1-0.9,2-2,2h-18c-1.1,0-2-0.9-2-2V55z M90,25h78v78H90V25z"/>
	</defs>
	<clipPath id="XMLID_113_">
		<use xlink:href="#XMLID_43_"  style="overflow:visible;"/>
	</clipPath>
	<g id="XMLID_47_" class="st13">
		<defs>
			<path id="XMLID_48_" d="M114,55c0-3.3,2.7-6,6-6h18c3.3,0,6,2.7,6,6v18c0,3.3-2.7,6-6,6h-18c-3.3,0-6-2.7-6-6V55z"/>
		</defs>
		<clipPath id="XMLID_114_">
			<use xlink:href="#XMLID_48_"  style="overflow:visible;"/>
		</clipPath>
		<g id="XMLID_49_" class="st14">
			<defs>
				<rect id="XMLID_50_" x="-310" y="-210" width="800" height="600"/>
			</defs>
			<clipPath id="XMLID_115_">
				<use xlink:href="#XMLID_50_"  style="overflow:visible;"/>
			</clipPath>
			<path id="XMLID_51_" class="st15" d="M114,55c0-3.3,2.7-6,6-6h18c3.3,0,6,2.7,6,6v18c0,3.3-2.7,6-6,6h-18c-3.3,0-6-2.7-6-6V55z"
				/>
		</g>
	</g>
</g>
<g id="XMLID_37_">
	<defs>
		<path id="XMLID_38_" d="M114,55c0-3.3,2.7-6,6-6h18c3.3,0,6,2.7,6,6v18c0,3.3-2.7,6-6,6h-18c-3.3,0-6-2.7-6-6V55z"/>
	</defs>
	<clipPath id="XMLID_116_">
		<use xlink:href="#XMLID_38_"  style="overflow:visible;"/>
	</clipPath>
	<g id="XMLID_39_" class="st16">
		<defs>
			<rect id="XMLID_40_" x="-310" y="-210" width="800" height="600"/>
		</defs>
		<clipPath id="XMLID_117_">
			<use xlink:href="#XMLID_40_"  style="overflow:visible;"/>
		</clipPath>
		<path id="XMLID_41_" class="st17" d="M114,55c0-3.3,2.7-6,6-6h18c3.3,0,6,2.7,6,6v18c0,3.3-2.7,6-6,6h-18c-3.3,0-6-2.7-6-6V55z"/>
	</g>
</g>
<g id="XMLID_32_">
	<defs>
		<path id="XMLID_33_" d="M109,131h4c0.6,0,1-0.5,1-1v-9h-5H72.5h-5v9c0,0.5,0.4,1,1,1h4H109z"/>
	</defs>
	<clipPath id="XMLID_118_">
		<use xlink:href="#XMLID_33_"  style="overflow:visible;"/>
	</clipPath>
	<g id="XMLID_34_" class="st18">
		<defs>
			<rect id="XMLID_35_" x="-310" y="-210" width="800" height="600"/>
		</defs>
		<clipPath id="XMLID_119_">
			<use xlink:href="#XMLID_35_"  style="overflow:visible;"/>
		</clipPath>
		<rect id="XMLID_36_" x="62.5" y="116" class="st19" width="56.5" height="20"/>
	</g>
</g>
<g id="XMLID_27_">
	<defs>
		<path id="XMLID_28_" d="M80,91.8V96h10v-4.2V60.2V57c0-0.6-0.5-1-1-1h-8c-0.5,0-1,0.4-1,1v3.2V91.8z"/>
	</defs>
	<clipPath id="XMLID_120_">
		<use xlink:href="#XMLID_28_"  style="overflow:visible;"/>
	</clipPath>
	<g id="XMLID_29_" class="st20">
		<defs>
			<rect id="XMLID_30_" x="-310" y="-210" width="800" height="600"/>
		</defs>
		<clipPath id="XMLID_121_">
			<use xlink:href="#XMLID_30_"  style="overflow:visible;"/>
		</clipPath>
		<rect id="XMLID_31_" x="75" y="51" class="st21" width="20" height="50"/>
	</g>
</g>
<g id="XMLID_22_">
	<defs>
		<path id="XMLID_23_" d="M78,86.5h-4c-0.6,0-1,0.5-1,1v8c0,0.5,0.4,1,1,1h4h26h4c0.6,0,1-0.5,1-1v-8c0-0.5-0.4-1-1-1h-4H78z"/>
	</defs>
	<clipPath id="XMLID_122_">
		<use xlink:href="#XMLID_23_"  style="overflow:visible;"/>
	</clipPath>
	<g id="XMLID_24_" class="st22">
		<defs>
			<rect id="XMLID_25_" x="-310" y="-210" width="800" height="600"/>
		</defs>
		<clipPath id="XMLID_123_">
			<use xlink:href="#XMLID_25_"  style="overflow:visible;"/>
		</clipPath>
		<rect id="XMLID_26_" x="68" y="81.5" class="st23" width="46" height="20"/>
	</g>
</g>
<g id="XMLID_17_">
	<defs>
		<path id="XMLID_18_" d="M86,91.8V96h10v-4.2V60.2V57c0-0.6-0.5-1-1-1h-8c-0.5,0-1,0.4-1,1v3.2V91.8z"/>
	</defs>
	<clipPath id="XMLID_124_">
		<use xlink:href="#XMLID_18_"  style="overflow:visible;"/>
	</clipPath>
	<g id="XMLID_19_" class="st24">
		<defs>
			<rect id="XMLID_20_" x="-310" y="-210" width="800" height="600"/>
		</defs>
		<clipPath id="XMLID_125_">
			<use xlink:href="#XMLID_20_"  style="overflow:visible;"/>
		</clipPath>
		<rect id="XMLID_21_" x="81" y="51" class="st25" width="20" height="50"/>
	</g>
</g>
<g id="XMLID_12_">
	<defs>
		<path id="XMLID_13_" d="M115.2,125.3h4c0.6,0,1-0.5,1-1v-9h-5H64.8h-5v9c0,0.5,0.4,1,1,1h4H115.2z"/>
	</defs>
	<clipPath id="XMLID_126_">
		<use xlink:href="#XMLID_13_"  style="overflow:visible;"/>
	</clipPath>
	<g id="XMLID_14_" class="st26">
		<defs>
			<rect id="XMLID_15_" x="-310" y="-210" width="800" height="600"/>
		</defs>
		<clipPath id="XMLID_127_">
			<use xlink:href="#XMLID_15_"  style="overflow:visible;"/>
		</clipPath>
		<rect id="XMLID_16_" x="54.8" y="110.3" class="st27" width="70.4" height="20"/>
	</g>
</g>
<g id="XMLID_7_">
	<defs>
		<path id="XMLID_8_" d="M125,120.3h4c0.6,0,1-0.5,1-1v-8c0-0.5-0.4-1-1-1h-4h-1.7h-4c-0.6,0-1,0.5-1,1v9h5H125z"/>
	</defs>
	<clipPath id="XMLID_128_">
		<use xlink:href="#XMLID_8_"  style="overflow:visible;"/>
	</clipPath>
	<g id="XMLID_9_" class="st28">
		<defs>
			<rect id="XMLID_10_" x="-310" y="-210" width="800" height="600"/>
		</defs>
		<clipPath id="XMLID_129_">
			<use xlink:href="#XMLID_10_"  style="overflow:visible;"/>
		</clipPath>
		<rect id="XMLID_11_" x="113.3" y="105.3" class="st29" width="21.7" height="20"/>
	</g>
</g>
<g id="XMLID_2_">
	<defs>
		<path id="XMLID_3_" d="M55.7,120.3h5v-9c0-0.5-0.4-1-1-1h-4H54h-4c-0.6,0-1,0.5-1,1v8c0,0.5,0.4,1,1,1h4H55.7z"/>
	</defs>
	<clipPath id="XMLID_130_">
		<use xlink:href="#XMLID_3_"  style="overflow:visible;"/>
	</clipPath>
	<g id="XMLID_4_" class="st30">
		<defs>
			<rect id="XMLID_5_" x="-310" y="-210" width="800" height="600"/>
		</defs>
		<clipPath id="XMLID_131_">
			<use xlink:href="#XMLID_5_"  style="overflow:visible;"/>
		</clipPath>
		<rect id="XMLID_6_" x="44" y="105.3" class="st31" width="21.7" height="20"/>
	</g>
</g>
</svg>
